# xmcd
#
# Track frame offsets: 
#        150
#        8347
#        23710
#        35370
#        45582
#        60037
#        71087
#        83212
#        98755
#        109907
#        119955
#        137327
#        148870
#        159770
#        172775
#        183385
#        193800
#        206245
#        216075
#        227390
#
# Disc length: 3188 seconds
#
# Revision: 3
# Processed by: cddbd v1.5.2PL0 Copyright (c) Steve Scherf et al.
# Submitted via: ExactAudioCopyFreeDBPlugin 1.0
#
DISCID=060c7214
DTITLE=Various Artist - Country Fever [CD 2)
DYEAR=1995
DGENRE=Country
TTITLE0=Don Gibson - Blue Blue Day [1958] 
TTITLE1=Carl Perkins - Y.O.U. [1965] 
TTITLE2=Dave Dudley - Yellow Ros Of Texas [1988] 
TTITLE3=Susan Raye - Put A Little Love In Your Heart [1970] 
TTITLE4=Jeannie C. Riley - Harper Valley P.T.A. [1968]
TTITLE5=Johnny Cash - Oh Lonesome Me [1960] 
TTITLE6=Billie Jo Spears - Look What You've Done To My Song [1973] 
TTITLE7=Roy Clark - Me And Bobby McGee [1983] 
TTITLE8=Hank Locklin - Let Me Be The One [1953] 
TTITLE9=Patsy Cline - Three Cigarettes In An Ashtray [1956] 
TTITLE10=Bobby Bare - Sylvia's Mother [1974] 
TTITLE11=Marshall Tucker Band - Hillbilly Band [1973] 
TTITLE12=Cates Sisters - Release Me [1975]
TTITLE13=Don Fargo - Daddy [1979] 
TTITLE14=Jeannie Seely - I Think I'll Cry Tonight [1964]
TTITLE15=Jan Howard - The One You Slip Around With [1960] 
TTITLE16=Wynn Stewart - Wishful Thinking [1959] 
TTITLE17=Warren Smith - So Long I'm Gone [1957] 
TTITLE18=Johnny Duncan - Bring Your Heart [1966] 
TTITLE19=Don Everly - So Sad To Watch Good Love Go Bad [1962] 
EXTD=
EXTT0=
EXTT1=
EXTT2=
EXTT3=
EXTT4=
EXTT5=
EXTT6=
EXTT7=
EXTT8=
EXTT9=
EXTT10=
EXTT11=
EXTT12=
EXTT13=
EXTT14=
EXTT15=
EXTT16=
EXTT17=
EXTT18=
EXTT19=
PLAYORDER=
